<?xml version="1.0" encoding="UTF-8" standalone="no"?>
<!-- Created with Inkscape (http://www.inkscape.org/) -->

<svg
   xmlns:dc="http://purl.org/dc/elements/1.1/"
   xmlns:cc="http://creativecommons.org/ns#"
   xmlns:rdf="http://www.w3.org/1999/02/22-rdf-syntax-ns#"
   xmlns:svg="http://www.w3.org/2000/svg"
   xmlns="http://www.w3.org/2000/svg"
   xmlns:sodipodi="http://sodipodi.sourceforge.net/DTD/sodipodi-0.dtd"
   xmlns:inkscape="http://www.inkscape.org/namespaces/inkscape"
   width="235.53012mm"
   height="163.54352mm"
   viewBox="0 0 235.53012 163.54352"
   version="1.1"
   id="svg8"
   inkscape:version="0.92.3 (2405546, 2018-03-11)"
   sodipodi:docname="cookhat.svg">
  <defs
     id="defs2" />
  <sodipodi:namedview
     id="base"
     pagecolor="#ffffff"
     bordercolor="#666666"
     borderopacity="1.0"
     inkscape:pageopacity="0.0"
     inkscape:pageshadow="2"
     inkscape:zoom="0.7"
     inkscape:cx="393.19447"
     inkscape:cy="215.87455"
     inkscape:document-units="mm"
     inkscape:current-layer="layer1"
     showgrid="false"
     inkscape:pagecheckerboard="true"
     fit-margin-top="0"
     fit-margin-left="0"
     fit-margin-right="0"
     fit-margin-bottom="-0.2"
     inkscape:window-width="1600"
     inkscape:window-height="837"
     inkscape:window-x="-8"
     inkscape:window-y="-8"
     inkscape:window-maximized="1"
     showguides="true"
     inkscape:guide-bbox="true">
    <sodipodi:guide
       position="14.741071,178.02679"
       orientation="0,1"
       id="guide77"
       inkscape:locked="false" />
  </sodipodi:namedview>
  <metadata
     id="metadata5">
    <rdf:RDF>
      <cc:Work
         rdf:about="">
        <dc:format>image/svg+xml</dc:format>
        <dc:type
           rdf:resource="http://purl.org/dc/dcmitype/StillImage" />
        <dc:title></dc:title>
      </cc:Work>
    </rdf:RDF>
  </metadata>
  <g
     inkscape:label="Camada 1"
     inkscape:groupmode="layer"
     id="layer1"
     transform="translate(12.765063,-66.728237)">
    <g
       id="g21"
       transform="translate(-114.39136,-14.967093)" />
    <g
       id="g90">
      <g
         id="flowRoot35"
         style="font-style:normal;font-weight:normal;font-size:40px;line-height:0.25;font-family:sans-serif;letter-spacing:0px;word-spacing:0px;fill:#ffffff;fill-opacity:1;stroke:none"
         transform="matrix(0.26458333,0,0,0.26458333,0.61942016,69.01849)"
         aria-label="Cookezera">
        <path
           id="path58"
           style="font-style:normal;font-variant:normal;font-weight:normal;font-stretch:normal;font-size:74.66666412px;line-height:0.25;font-family:Bebas;-inkscape-font-specification:Bebas;text-align:center;text-anchor:middle;fill:#ffffff"
           d="m 268.67671,571.77358 c 7.392,0 12.39467,-5.07734 12.39467,-12.39467 v -7.46667 h -7.76534 v 7.46667 c 0,3.06133 -1.86666,4.928 -4.55466,4.928 -2.688,0 -4.55467,-1.86667 -4.55467,-4.928 v -28.97067 c 0,-3.06133 1.86667,-4.928 4.55467,-4.928 2.688,0 4.55466,1.86667 4.55466,4.928 v 6.12267 h 7.76534 v -6.12267 c 0,-7.31733 -5.00267,-12.39466 -12.39467,-12.39466 -7.392,0 -12.39467,5.07733 -12.39467,12.39466 v 28.97067 c 0,7.31733 5.00267,12.39467 12.39467,12.39467 z" />
        <path
           id="path60"
           style="font-style:normal;font-variant:normal;font-weight:normal;font-stretch:normal;font-size:74.66666412px;line-height:0.25;font-family:Bebas;-inkscape-font-specification:Bebas;text-align:center;text-anchor:middle;fill:#ffffff"
           d="m 300.62121,571.77358 c 7.616,0 12.69333,-5.07734 12.69333,-12.61867 v -28.52267 c 0,-7.54133 -5.07733,-12.61866 -12.69333,-12.61866 -7.616,0 -12.69333,5.07733 -12.69333,12.61866 v 28.52267 c 0,7.54133 5.07733,12.61867 12.69333,12.61867 z m 0,-7.46667 c -2.912,0 -4.77867,-1.86667 -4.77867,-5.152 v -28.52267 c 0,-3.28533 1.86667,-5.152 4.77867,-5.152 2.912,0 4.77867,1.86667 4.77867,5.152 v 28.52267 c 0,3.28533 -1.86667,5.152 -4.77867,5.152 z" />
        <path
           id="path62"
           style="font-style:normal;font-variant:normal;font-weight:normal;font-stretch:normal;font-size:74.66666412px;line-height:0.25;font-family:Bebas;-inkscape-font-specification:Bebas;text-align:center;text-anchor:middle;fill:#ffffff"
           d="m 333.28788,571.77358 c 7.616,0 12.69333,-5.07734 12.69333,-12.61867 v -28.52267 c 0,-7.54133 -5.07733,-12.61866 -12.69333,-12.61866 -7.616,0 -12.69334,5.07733 -12.69334,12.61866 v 28.52267 c 0,7.54133 5.07734,12.61867 12.69334,12.61867 z m 0,-7.46667 c -2.912,0 -4.77867,-1.86667 -4.77867,-5.152 v -28.52267 c 0,-3.28533 1.86667,-5.152 4.77867,-5.152 2.912,0 4.77866,1.86667 4.77866,5.152 v 28.52267 c 0,3.28533 -1.86666,5.152 -4.77866,5.152 z" />
        <path
           id="path64"
           style="font-style:normal;font-variant:normal;font-weight:normal;font-stretch:normal;font-size:74.66666412px;line-height:0.25;font-family:Bebas;-inkscape-font-specification:Bebas;text-align:center;text-anchor:middle;fill:#ffffff"
           d="m 373.12253,571.02691 h 8.512 l -11.94666,-30.09067 11.12533,-22.176 h -8.512 l -10.45333,21.20534 v -21.20534 h -7.91467 v 52.26667 h 7.91467 v -15.75467 l 2.98666,-5.74933 z" />
        <path
           id="path66"
           style="font-style:normal;font-variant:normal;font-weight:normal;font-stretch:normal;font-size:74.66666412px;line-height:0.25;font-family:Bebas;-inkscape-font-specification:Bebas;text-align:center;text-anchor:middle;fill:#ffffff"
           d="m 387.47487,571.02691 h 22.47467 v -7.46667 h -14.56 v -15.30666 h 11.57333 v -7.46667 h -11.57333 v -14.56 h 14.56 v -7.46667 h -22.47467 z" />
        <path
           id="path68"
           style="font-style:normal;font-variant:normal;font-weight:normal;font-stretch:normal;font-size:74.66666412px;line-height:0.25;font-family:Bebas;-inkscape-font-specification:Bebas;text-align:center;text-anchor:middle;fill:#ffffff"
           d="M 438.88169,518.76024 H 415.1377 v 7.46667 h 14.93333 l -14.93333,38.08 v 6.72 h 23.74399 v -7.46667 h -14.93333 l 14.93333,-38.08 z" />
        <path
           id="path70"
           style="font-style:normal;font-variant:normal;font-weight:normal;font-stretch:normal;font-size:74.66666412px;line-height:0.25;font-family:Bebas;-inkscape-font-specification:Bebas;text-align:center;text-anchor:middle;fill:#ffffff"
           d="m 445.66237,571.02691 h 22.47467 v -7.46667 h -14.56 v -15.30666 h 11.57333 v -7.46667 h -11.57333 v -14.56 h 14.56 v -7.46667 h -22.47467 z" />
        <path
           id="path72"
           style="font-style:normal;font-variant:normal;font-weight:normal;font-stretch:normal;font-size:74.66666412px;line-height:0.25;font-family:Bebas;-inkscape-font-specification:Bebas;text-align:center;text-anchor:middle;fill:#ffffff"
           d="m 500.81303,571.02691 -6.64534,-23.37067 c 3.43467,-2.09066 5.45067,-5.824 5.45067,-10.67733 v -5.74933 c 0,-7.54134 -4.85333,-12.46934 -12.39467,-12.46934 h -12.39466 v 52.26667 h 7.91466 v -21.57867 h 4.10667 l 5.74933,21.57867 z m -18.06934,-44.8 h 4.10667 c 3.06133,0 4.85333,1.792 4.85333,4.85333 v 6.048 c 0,3.06134 -1.792,4.85334 -4.85333,4.85334 h -4.10667 z" />
        <path
           id="path74"
           style="font-style:normal;font-variant:normal;font-weight:normal;font-stretch:normal;font-size:74.66666412px;line-height:0.25;font-family:Bebas;-inkscape-font-specification:Bebas;text-align:center;text-anchor:middle;fill:#ffffff"
           d="m 524.67252,571.02691 h 8.064 l -8.66133,-52.26667 h -10.60267 l -8.66133,52.26667 h 7.91467 l 1.71733,-11.57333 h 8.512 z m -9.184,-19.18933 3.21067,-21.87734 3.21067,21.87734 z" />
      </g>
      <path
         sodipodi:nodetypes="ccccccscccccscscccccccsccccsccscccscscccccccccsccsscscssscscccccccccccccccccccccccccccccccccccccccccccccccccccccccccccccccccccccccccccccccccccccccccccccccccccccccccccccccccccccccccccccccccccccccccccccccccccccccccccccccccccccccccccccccccccccccccccccccccccccccccccccccccccccccccccccccccccccccccccccccccccccccccccccccccccc"
         style="fill:#fefefe;stroke-width:0.35277778"
         d="m 39.536648,229.90856 c -1.969619,-0.5289 -2.809308,-1.62569 -3.146409,-4.10979 -0.530889,-3.91217 -3.05599,-6.65941 -7.238505,-7.87529 -2.698051,-0.78436 -3.942612,-0.73627 -6.780104,0.26199 -4.175882,1.46911 -7.369675,1.82491 -16.1916884,1.8038 -8.752342,-0.021 -12.6919539,-0.55427 -16.6397766,-2.25258 -1.904889,-0.81946 -2.276646,-1.47663 -2.304506,-4.07372 -0.02417,-2.25314 0.557441,-3.49529 1.943969,-4.15174 3.5278637,-1.67022 9.0411136,-2.45356 17.3530906,-2.46556 8.4926014,-0.0123 14.3267274,0.84654 17.9368824,2.6404 1.344369,0.668 1.378575,0.66731 3.880554,-0.0779 2.949181,-0.87847 5.920055,-2.77128 6.940074,-4.42173 0.395682,-0.64021 0.956961,-1.96393 1.247291,-2.94158 0.674269,-2.27051 1.9783,-3.81437 3.623281,-4.28963 0.899937,-0.26002 20.904721,0.0242 65.351869,-0.27096 l 64.05497,0.10375 1.43876,0.95214 c 1.22069,0.80784 1.55778,1.3158 2.22406,3.35139 1.01055,3.08741 3.45233,5.62495 6.54948,6.80636 2.79317,1.06544 4.74482,1.03852 7.64304,-0.10536 3.14023,-1.23943 9.16299,-2.00896 15.71321,-2.00771 7.83006,0.001 13.41849,0.81595 17.44443,2.54233 1.3456,0.57703 1.6757,0.88832 1.6757,1.58026 0,0.47393 0.15835,1.15759 0.3519,1.51923 0.24317,0.45438 0.20487,1.23747 -0.12396,2.53444 -0.46261,1.82465 -0.53115,1.89921 -2.46131,2.67697 -4.2258,1.70283 -6.80682,2.01602 -16.64024,2.0192 -9.60368,0.003 -12.161,-0.26702 -16.05139,-1.69546 -6.24528,-2.29311 -13.232,1.48157 -14.01246,7.57044 -0.33273,2.59575 -1.27594,4.05947 -2.81937,4.37521 -0.73492,0.15035 -30.14935,0.30686 -65.36539,0.34782 -48.704081,0.0566 -64.404519,-0.0263 -65.597452,-0.34666 z m 126.021972,-4.56048 c 2.71145,-1.16014 3.97726,-3.77862 4.55105,-9.41437 0.46086,-4.52656 -0.0417,-11.9864 -0.92212,-13.68906 -1.21441,-2.3484 4.25961,-2.16567 -64.22014,-2.14372 -47.16256,0.0151 -62.387611,0.12119 -63.30026,0.44097 -2.172271,0.76117 -2.65838,1.87433 -2.802609,6.41794 -0.180801,5.69523 0.473318,12.90737 1.320469,14.55933 0.955109,1.86247 2.197809,2.90517 4.34739,3.64766 1.775269,0.61321 4.679669,0.64449 60.87761,0.65546 49.34432,0.01 59.19941,-0.0681 60.14861,-0.47421 z M 19.938276,214.91118 c 2.733643,-0.54293 3.924329,-1.26342 3.310403,-2.00315 -2.067735,-2.49147 -12.309152,-4.10801 -21.1009414,-3.33068 -6.509867,0.57559 -12.0191849,2.28646 -12.0191849,3.73244 0,0.67484 2.568835,1.55 5.6444439,1.92296 3.63371299,0.44061 21.5264574,0.20253 24.1652794,-0.32157 z m 194.909714,-0.0702 c 2.83369,-0.39208 4.93888,-1.10186 4.93888,-1.66517 0,-0.5349 -1.76783,-1.66465 -3.52777,-2.25447 -3.76583,-1.26206 -5.81526,-1.48772 -13.40556,-1.47614 -6.61445,0.0101 -7.98072,0.11081 -10.68027,0.78721 -3.34084,0.8371 -4.78976,1.45918 -5.55989,2.38712 -1.14007,1.37371 2.07605,2.24291 9.71377,2.62529 6.15116,0.30797 14.72809,0.12094 18.52084,-0.40384 z M 34.50208,214.6999 c 1.034158,-0.72436 1.84036,-2.3275 1.84036,-3.65959 v -1.07019 l -1.322912,0.6892 c -0.727609,0.37906 -2.592919,0.87135 -4.145139,1.094 -4.28574,0.6147 -4.76023,1.52391 -1.488861,2.85288 1.882942,0.76494 4.100232,0.80554 5.116552,0.0937 z m 144.96904,0.0182 c 0.98607,-0.29283 2.14243,-0.81549 2.56969,-1.16146 0.67693,-0.54815 0.70917,-0.68521 0.25067,-1.06573 -0.28939,-0.24018 -1.89518,-0.6583 -3.56842,-0.92916 -1.79923,-0.29126 -3.56557,-0.81591 -4.32306,-1.28407 l -1.28082,-0.79159 0.25715,1.37072 c 0.38878,2.07238 1.17858,3.33555 2.42435,3.87737 1.4302,0.62204 1.52305,0.62163 3.67044,-0.0161 z M 83.633469,179.87291 c -3.706524,-0.34263 -7.635152,-1.59723 -10.954919,-2.58607 -2.275919,-0.70269 -4.35673,-1.75588 -6.27344,-3.10779 -1.377567,-1.20439 -2.977647,-2.78572 -3.47049,-4.43688 -1.384421,-4.92601 -0.253838,-10.23057 -0.379039,-15.34589 -0.125203,-5.11526 4.222136,-13.09333 -0.372171,-15.34586 -0.16392,-0.0804 -0.286268,0.22788 -0.44097,0.32482 -0.337841,0.21168 -0.705554,0.37146 -1.058331,0.55719 -0.352777,0.18574 -0.682897,0.42305 -1.058328,0.55721 -0.508627,0.18175 -1.062392,0.19826 -1.5875,0.32475 -0.533934,0.1286 -1.047022,0.34347 -1.5875,0.44097 -1.684234,0.30381 -3.404116,0.4116 -5.115282,0.44096 -1.707121,0.0293 -3.432974,0.0269 -5.11528,-0.26457 -0.302418,-0.0524 -0.591926,-0.16412 -0.881941,-0.2646 -0.298593,-0.10344 -0.591857,-0.22237 -0.881948,-0.34768 -0.536927,-0.23195 -1.067308,-0.48006 -1.5875,-0.74744 -0.539121,-0.27712 -1.071198,-0.56942 -1.5875,-0.88702 -0.247399,-0.15219 -0.490739,-0.31208 -0.7224,-0.4873 -2.767558,-2.16153 -4.573495,-4.05912 -5.05433,-7.51858 -0.113292,-0.78404 -0.196205,-1.57219 -0.286639,-2.3592 -0.320461,-2.70717 -0.138213,-6.31063 0.339939,-8.81943 0.148257,-0.73444 0.505007,-1.41086 0.756409,-2.11668 0.251217,-0.70529 0.423918,-1.44341 0.751451,-2.11667 0.952323,-0.96074 1.357466,-2.48877 2.45169,-3.20213 2.208028,-2.06751 3.326752,-1.89741 2.822229,-4.55898 -0.521034,-3.1867 -0.165706,-6.46115 -0.0232,-9.687027 0.431982,-2.401054 1.407387,-5.248474 2.845429,-7.031089 1.399667,-1.615579 3.019156,-3.030646 4.61876,-4.44854 1.826562,-1.564729 3.685585,-3.207055 5.6118,-4.381696 1.280996,-1.042672 2.805355,-1.510661 4.23333,-2.144696 6.860247,-3.065323 14.845639,-2.12887 21.79506,-1.642595 3.65832,0.608194 5.413777,1.334416 7.132717,-0.199028 1.95065,-1.405691 3.60142,-2.155525 5.29166,-3.097271 3.54882,-1.986111 7.166365,-4.191914 10.759715,-5.468056 7.97939,-3.190951 17.42463,-3.457653 25.03537,-3.00819 3.25836,0.163776 6.52594,0.256173 9.76735,0.626295 3.79397,0.353684 7.55007,1.964582 10.75601,3.616617 0.82538,0.340193 1.62425,0.610876 2.35281,1.012939 2.15506,1.599096 4.70856,3.243841 6.44337,4.807895 1.57346,1.652488 3.27802,2.63217 4.51773,4.402386 0.36239,0.51206 0.71352,1.032134 1.0821,1.539758 1.24752,1.968751 2.90956,4.100218 3.74968,6.052302 0.37117,1.229625 0.93997,2.379888 1.38308,3.52778 2.36247,5.385019 1.4793,12.820796 1.12339,18.263946 -0.58589,3.61408 -1.8041,7.90535 -3.94566,10.79141 -0.17639,0.23518 -0.36737,0.4601 -0.52917,0.70554 -2.22616,3.44471 -3.80056,4.5552 -7.05555,6.22243 -1.22278,0.58403 -2.10114,1.40881 -3.17846,2.11667 -0.3754,0.24075 -0.77304,0.44745 -1.13673,0.70556 -0.30544,0.21676 -0.58918,0.46287 -0.87446,0.70555 -0.57611,0.4901 -1.1328,1.0027 -1.68952,1.51471 -0.46747,0.42994 -1.03851,0.77584 -1.38591,1.30751 -0.2049,0.3136 -0.23641,0.71151 -0.37798,1.05834 -0.14681,0.35966 -0.3586,0.69205 -0.48802,1.05833 -0.30596,0.86594 -0.42436,1.78768 -0.67421,2.67144 -0.11491,0.40645 -0.30404,0.79345 -0.37911,1.20912 -0.64357,3.5635 -0.37512,7.23262 -0.58107,10.84791 -0.36678,6.43863 0.84502,13.18448 -1.16581,19.31205 -0.98079,1.764 -4.26678,4.04926 -5.884,4.94144 -4.17899,1.91978 -8.60805,3.00693 -12.86392,3.95092 -5.67272,0.67083 -11.78116,1.355 -17.06339,1.52682 -9.30578,-0.0177 -19.283795,-0.46061 -27.909401,-1.52061 z m 40.903411,-3.34264 c 0.5303,-0.0868 1.05562,-0.20374 1.5875,-0.28015 0.94374,-0.0764 1.80093,-0.19014 2.64583,-0.43547 3.00132,-0.85784 5.66571,-1.6217 8.39954,-2.7401 1.505,-1.13591 4.08609,-1.796 5.1824,-3.33238 1.7818,-3.55169 -3.6014,-5.33652 -5.82083,-6.49481 -1.07998,-0.55322 -2.2266,-0.97538 -3.38096,-1.34937 -4.14709,-0.90073 -7.96843,-2.45793 -11.8638,-2.86521 -10.29222,-0.99989 -20.7454,-1.11139 -31.022005,0.0379 -2.00625,0.56579 -4.02052,0.78951 -5.944336,1.3689 -0.445439,0.13442 -0.870987,0.3346 -1.322919,0.44524 -2.182675,-0.0416 -3.565043,0.78408 -5.37986,1.40315 -0.704879,0.24307 -1.412547,0.47804 -2.116659,0.72332 -1.557486,0.35524 -2.689114,1.18182 -4.056951,1.79203 -0.300578,0.13658 -0.607688,0.26695 -0.881941,0.45077 -1.736826,1.50887 -3.572719,1.99327 -2.09585,3.78256 0.916451,1.74828 2.422404,2.15075 3.99351,3.01944 2.248501,1.54499 4.236807,2.2161 6.921781,2.78035 2.963735,0.78185 6.296565,1.94053 8.995825,2.15298 1.41028,0.002 2.77369,0.28935 4.05695,0.5139 0.70486,0.12169 1.40486,0.2823 2.11666,0.35277 3.62952,0.3594 10.936115,0.35278 10.936115,0.35278 6.40164,-0.1778 12.73743,-0.65436 19.05,-1.6786 z m 20.26191,-22.0973 c 0.12323,-3.13646 -0.1193,-6.31421 -0.76837,-9.38526 -0.26117,-1.17368 -0.71284,-2.0995 -1.30466,-3.04123 -0.75116,-1.92119 -1.61773,-3.03776 -3.22735,-4.1907 -0.45399,-0.322 -0.9081,-0.65844 -1.41783,-0.88196 -1.56222,-0.286 -2.96088,-1.1055 -4.37148,-1.58139 -1.22388,-0.40289 -2.51386,-0.56809 -3.76297,-0.88417 -0.41342,-0.10461 -0.81591,-0.25457 -1.23472,-0.33493 -1.66616,-0.3197 -3.37067,-0.38964 -5.05648,-0.58025 -1.7164,-0.19406 -3.42538,-0.47965 -5.15016,-0.57363 -9.00807,-0.49078 -18.07283,-0.67961 -27.064225,0.0559 -0.77382,0.0633 -1.53219,0.25225 -2.29903,0.37379 -1.95865,0.31046 -3.934045,0.52403 -5.879624,0.90801 -3.898212,0.38427 -7.25488,2.2185 -10.583341,3.97679 -0.380444,0.21283 -0.898168,0.27086 -1.146519,0.62912 -0.376804,0.54357 -0.738912,1.48419 -0.283512,1.96382 0.248288,0.2615 0.721408,-0.0406 1.077262,-0.0989 0.71564,-0.11723 1.421784,-0.29526 2.116659,-0.50271 0.718936,-0.21463 1.388705,-0.58392 2.116669,-0.76558 0.633902,-0.15819 1.291648,-0.19921 1.940282,-0.27749 1.206093,-0.022 2.332538,-0.34547 3.439578,-0.40864 1.998702,-0.0987 3.996926,0.21458 5.997216,0.27264 1.4988,0.0435 3.44437,-1.01021 4.49792,0.0567 0.36803,0.3727 0.16522,1.0743 0,1.57134 -0.18588,0.55919 -0.58131,1.07004 -1.05833,1.41601 -0.30145,0.21865 -0.69804,0.26367 -1.05834,0.35783 -0.48483,0.12671 -0.98236,0.20057 -1.47763,0.27687 -2.08519,0.32127 -4.198151,0.44051 -6.283475,0.76091 -0.521566,0.0801 -1.033008,0.2217 -1.556219,0.29027 -0.591579,0.0775 -1.203849,6e-5 -1.784712,0.13634 -1.658112,0.64476 -3.113768,1.19487 -4.684758,1.77002 -1.508109,0.56269 -4.176569,1.3068 -5.027091,2.61659 0.241247,0.86062 1.739011,0.44078 2.628199,0.53137 3.515484,0.35816 7.129584,-0.62277 10.60097,0.0378 0.317389,0.0604 0.659554,0.14011 0.902772,0.35278 0.354288,0.30979 0.566851,0.7791 0.684728,1.23472 0.10309,0.39846 0.291026,0.9437 0,1.23473 -3.962934,-0.13951 -7.341113,1.61096 -10.93611,2.21781 -1.677075,0.15233 -2.987529,0.77516 -4.056949,2.01553 -0.28262,0.32901 -0.544523,0.68021 -0.75701,1.05832 -0.171926,0.30595 -0.48006,0.624 -0.41294,0.96847 0.105214,0.53997 0.638434,1.02215 1.16995,1.16405 0.764403,0.20406 1.54931,-0.34295 2.293059,-0.61274 0.981708,-0.57143 2.171007,-0.73379 3.175,-0.95055 2.590573,-0.39509 4.280003,-1.17342 6.785182,-1.55508 1.005826,-0.15987 2.025988,-0.22566 3.028008,-0.40788 0.542083,-0.0986 1.073886,-0.24706 1.610936,-0.37016 0.64276,-0.14733 1.27424,-0.35863 1.92851,-0.44097 5.70326,-0.7177 11.49084,-0.44224 17.239065,-0.44096 5.65028,0.001 11.34202,-0.28792 16.94509,0.44096 5.19994,0.9417 10.83557,2.01919 14.72848,3.2632 0.53115,0.17032 1.06169,0.34301 1.5875,0.52916 0.47355,0.16766 0.94074,0.35279 1.41111,0.52918 0.47037,0.17639 0.91326,0.46203 1.41111,0.52917 3.76937,-0.2921 2.52769,0.39543 3.32858,-5.25502 z M 62.18341,130.12939 c 0.222123,-0.30393 0.431006,-0.61857 0.617371,-0.94565 0.13181,-0.23133 0.274172,-0.46224 0.352769,-0.71662 0.245462,-0.79445 0.35278,-1.63794 0.35278,-2.46945 -0.05053,-2.06121 -2.45163,-6.59272 -3.755221,-7.98183 -1.390002,-1.70027 -3.750413,-2.44638 -4.358669,-4.56981 -0.137023,-0.50143 -0.36757,-1.19189 0,-1.55947 0.374176,-0.37417 1.065165,-0.0848 1.5875,0 1.619406,0.44811 3.151806,1.26298 4.610171,2.07446 3.989486,2.8009 4.761389,4.93389 9.52654,6.14333 2.37068,0.45813 4.91903,1.35848 7.029958,1.66 4.844037,0.59292 9.772436,0.25595 14.640276,-0.091 4.07302,-0.30182 8.293305,-1.39611 11.994435,-2.00723 4.13738,-1.30466 8.31138,-2.74704 11.63816,-4.95735 2.19083,-1.45952 3.70597,-3.92764 4.75289,-5.99722 0.39846,-0.81002 0.58576,-1.70783 0.89025,-2.55764 0.98602,-2.01964 0.38609,-4.3219 -0.10525,-6.167954 -0.18736,-0.716815 -0.29037,-1.463509 -0.57852,-2.14607 -1.40853,-2.53424 -1.97455,-3.936106 -3.69837,-5.989931 -0.50858,-0.720351 -1.00147,-1.453339 -1.39614,-2.18841 -0.41022,-0.786892 -0.76399,-1.624657 -0.91969,-2.49829 -0.0808,-0.453606 -0.3258,-1.056458 0,-1.38226 0.45733,-0.457328 1.29924,-0.08585 1.94028,0 0.66445,0.08898 1.33807,0.234626 1.94028,0.52916 2.00496,1.318091 3.65904,3.717367 4.78811,5.57849 2.52352,4.539646 3.65722,9.869685 3.39253,14.794435 -0.22123,3.38804 -0.34207,6.87593 -1.46621,10.07969 -1.49172,3.23208 -0.69956,3.25021 1.02152,4.296 0.47721,0.11697 0.96486,0.19281 1.43631,0.33117 0.53941,0.15829 1.0669,0.3571 1.5875,0.56921 2.58275,0.462 5.23286,0.57149 7.23195,-1.11769 0.85009,-0.81807 0.98322,-2.14505 1.45893,-3.22468 0.29666,-0.67328 0.38951,-1.47137 0.87007,-2.02847 1.04165,-0.84484 2.19963,-1.44205 3.49182,-1.58509 0.52601,-0.0577 1.21332,-0.37418 1.5875,0 0.37418,0.37417 0.0848,1.06516 0,1.5875 -0.0894,0.55058 -0.29609,1.08074 -0.52917,1.5875 -0.14326,0.31147 -0.35475,0.58678 -0.52916,0.88194 -1.56666,2.56297 -0.93665,5.01321 1.8661,6.52639 0.56197,0.30005 1.13932,0.68941 1.77618,0.70556 6.31366,-1.82885 12.86333,-7.88287 15.47848,-13.43617 0.98791,-2.81457 1.98915,-5.99314 2.0459,-8.61244 0.008,-1.12162 -0.13052,-2.24289 -0.30176,-3.351395 -0.17218,-2.892073 -1.56259,-4.924282 -2.46516,-7.03135 -4.11048,-7.740285 -8.98195,-12.363912 -15.9303,-15.940887 -3.72548,-1.684069 -6.87224,-3.446128 -10.58333,-4.266904 -0.36324,-0.08487 -0.69399,-0.283652 -1.05834,-0.363621 -3.13406,-0.687874 -6.36837,-0.929976 -9.57675,-0.97224 -8.14183,-3.17e-4 -14.78711,2.584011 -21.82047,5.427137 -3.319475,1.180443 -6.784105,3.313892 -8.995825,5.156197 -0.16394,0.134402 -0.52917,0.140783 -0.52917,0.352777 0,0.211994 0.35278,0.235185 0.52917,0.352778 l 0.52916,0.352778 c 0.52211,0.583576 1.43083,0.677767 1.94028,1.058333 0.39785,0.312309 0.91394,0.729949 0.88195,1.234722 -0.0356,0.561473 -0.64165,0.990384 -1.14653,1.2386 -0.74169,0.364641 -1.64607,0.294143 -2.46945,0.22255 -3.48201,-0.63731 -7.14753,-1.936484 -10.142356,-2.771122 -2.455349,-0.815638 -5.088932,-1.38944 -7.58472,-1.335861 -3.075535,0.128948 -5.784998,0.984029 -8.643049,1.608628 -0.612002,0.135519 -1.218186,0.296961 -1.83152,0.426325 -1.897308,0.637784 -2.768192,1.187218 -4.165711,2.02199 -0.339553,0.20192 -0.720132,0.329249 -1.05833,0.53343 -0.266584,0.160946 -0.506466,0.362465 -0.76063,0.54239 -0.512011,0.36246 -1.029761,0.716814 -1.539758,1.0821 -0.386427,0.276777 -0.775018,0.550908 -1.151793,0.84069 -0.666469,0.512594 -1.295426,1.072668 -1.960168,1.5875 -2.348994,1.658351 -3.679354,3.63259 -4.99459,5.82084 -0.220162,0.375409 -0.347181,0.798245 -0.529172,1.19357 -0.684786,2.109375 -2.323258,4.796795 -2.822217,6.567545 -0.35509,1.53269 -0.293945,3.13447 -0.352783,4.70666 -0.05867,1.56778 0.936742,3.44811 0,4.70665 -0.293179,0.39389 -0.957506,0.23475 -1.411107,0.42278 -1.33749,0.53874 -2.294933,1.31789 -2.99861,2.51113 -0.224121,0.38765 -0.37917,0.81281 -0.529172,1.23472 -0.52746,1.4096 -0.971172,2.63803 -1.1938,4.05695 -0.146484,0.69582 0.04513,2.71712 0.06022,3.52777 0.08816,0.34459 0.05742,0.71151 0.136351,1.05834 0.275659,0.86092 0.553357,1.72611 0.997228,2.46944 0.585126,0.86713 1.377397,1.60667 2.102119,2.28844 2.229485,1.78256 4.704334,3.81929 7.422881,4.19703 0.47893,0.0733 0.930211,0.28956 1.41111,0.34861 4.434059,-0.85083 7.325638,-2.64392 9.965941,-6.23012 z m 83.52013,1.8655 c -0.15806,0.0687 -0.25409,-0.23297 -0.37797,-0.35277 -1.62798,-1.35925 -4.63437,-4.37984 -6.10246,-5.05799 -0.14173,-0.0616 -0.30577,-0.0486 -0.46007,-0.0573 -3.44337,-0.19335 -6.92397,0.55273 -10.34567,0.1213 -0.60403,-0.0762 -1.18779,-0.27705 -1.76383,-0.47408 -2.0535,-0.65675 -3.79384,-2.21461 -5.4849,-3.22652 -0.68967,-0.72023 -7.68334,1.70311 -8.53894,2.15917 0.0511,0.93999 1.88319,0.0232 2.82315,0.075 3.56901,0.32937 6.88248,0.92581 10.14236,1.50417 0.82797,0.14949 1.646,0.34954 2.46944,0.52224 5.58073,1.46337 13.16906,2.01656 17.63889,4.78672 1e-5,2e-5 2e-5,6e-5 0,6e-5 z m -72.143041,-3.71422 c 0.999233,-0.18856 1.996734,-0.38687 2.99861,-0.56084 0.645361,-0.11206 1.294641,-0.20061 1.940282,-0.31105 0.647949,-0.11082 1.969881,0.30392 1.940269,-0.35277 -2.626931,-0.5781 -4.90433,-0.54569 -7.84556,-1.30341 -1.2466,-0.38345 -2.885884,-0.37679 -3.796101,-1.34243 -0.922679,-1.85348 -0.47035,1.4355 -0.41283,1.91905 0.404522,3.9907 1.991326,2.48137 5.17533,1.95145 z"
         id="path29"
         inkscape:connector-curvature="0" />
    </g>
  </g>
</svg>
