<?xml version="1.0" encoding="UTF-8" standalone="no"?>
<svg
   xmlns:dc="http://purl.org/dc/elements/1.1/"
   xmlns:cc="http://creativecommons.org/ns#"
   xmlns:rdf="http://www.w3.org/1999/02/22-rdf-syntax-ns#"
   xmlns:svg="http://www.w3.org/2000/svg"
   xmlns="http://www.w3.org/2000/svg"
   xmlns:sodipodi="http://sodipodi.sourceforge.net/DTD/sodipodi-0.dtd"
   xmlns:inkscape="http://www.inkscape.org/namespaces/inkscape"
   width="297mm"
   height="210mm"
   viewBox="0 0 297 210"
   version="1.1"
   id="svg8"
   inkscape:version="1.0.1 (c497b03c, 2020-09-10)"
   sodipodi:docname="logoAppReceitasOFICIAL.svg">
  <defs
     id="defs2" />
  <sodipodi:namedview
     id="base"
     pagecolor="#ffffff"
     bordercolor="#666666"
     borderopacity="1.0"
     inkscape:pageopacity="0.0"
     inkscape:pageshadow="2"
     inkscape:zoom="0.24209764"
     inkscape:cx="396.85039"
     inkscape:cy="561.25984"
     inkscape:document-units="mm"
     inkscape:current-layer="layer1"
     inkscape:document-rotation="0"
     showgrid="false"
     inkscape:window-width="1241"
     inkscape:window-height="755"
     inkscape:window-x="39"
     inkscape:window-y="23"
     inkscape:window-maximized="0" />
  <metadata
     id="metadata5">
    <rdf:RDF>
      <cc:Work
         rdf:about="">
        <dc:format>image/svg+xml</dc:format>
        <dc:type
           rdf:resource="http://purl.org/dc/dcmitype/StillImage" />
        <dc:title></dc:title>
      </cc:Work>
    </rdf:RDF>
  </metadata>
  <g
     inkscape:label="Layer 1"
     inkscape:groupmode="layer"
     id="layer1">
    <g
       id="g943"
       style="stroke:#ffffff">
      <g
         id="g954"
         transform="matrix(-1.4361426,0.21451443,-0.22746933,-1.6013356,484.48615,342.101)"
         style="fill:none;stroke:#ffffff;stroke-width:1.30506;stroke-miterlimit:4;stroke-dasharray:none"
         inkscape:export-xdpi="300"
         inkscape:export-ydpi="300">
        <path
           style="fill:none;stroke:#ffffff;stroke-width:1.30506;stroke-linecap:butt;stroke-linejoin:miter;stroke-miterlimit:4;stroke-dasharray:none;stroke-opacity:1"
           d="m 169.70352,167.89403 c -1.86623,2.0696 -0.063,4.43138 2.58497,2.45573 l 10.85689,-11.24464 c 2.08462,-1.72905 -0.82217,-5.46896 -3.10197,-3.48971 z"
           id="path883"
           sodipodi:nodetypes="ccccc" />
        <path
           style="fill:none;stroke:#ffffff;stroke-width:1.30506;stroke-linecap:butt;stroke-linejoin:miter;stroke-miterlimit:4;stroke-dasharray:none;stroke-opacity:1"
           d="m 169.70352,167.89403 v 0"
           id="path885" />
        <path
           style="fill:none;stroke:#ffffff;stroke-width:1.30506;stroke-linecap:butt;stroke-linejoin:miter;stroke-miterlimit:4;stroke-dasharray:none;stroke-opacity:1"
           d="m 169.70352,167.89403 c -0.89639,3.32295 -8.38012,9.83693 -11.24464,13.18337 l 1.16324,1.03399 c 0.37405,0.19147 8.93363,-11.48401 12.66637,-11.76163"
           id="path887"
           sodipodi:nodetypes="cccc" />
        <path
           style="fill:none;stroke:#ffffff;stroke-width:1.30506;stroke-linecap:butt;stroke-linejoin:miter;stroke-miterlimit:4;stroke-dasharray:none;stroke-opacity:1"
           d="m 158.45888,181.0774 v 0"
           id="path889" />
        <path
           style="fill:none;stroke:#ffffff;stroke-width:1.30506;stroke-linecap:butt;stroke-linejoin:miter;stroke-miterlimit:4;stroke-dasharray:none;stroke-opacity:1"
           d="m 156.22636,181.36833 2.45954,2.64173 c 2.02897,0.005 0.93622,-1.89867 0.93622,-1.89867 l -1.16324,-1.03399 c 0,0 -1.14757,-1.59699 -2.23252,0.29093 z"
           id="path891"
           sodipodi:nodetypes="ccccc" />
        <path
           style="fill:none;stroke:#ffffff;stroke-width:1.30506;stroke-linecap:butt;stroke-linejoin:miter;stroke-miterlimit:4;stroke-dasharray:none;stroke-opacity:1"
           d="m 156.22636,181.36833 c -15.67742,1.24213 -21.69967,12.84882 -16.67022,15.3949"
           id="path893"
           sodipodi:nodetypes="cc" />
        <path
           style="fill:none;stroke:#ffffff;stroke-width:1.30506;stroke-linecap:butt;stroke-linejoin:miter;stroke-miterlimit:4;stroke-dasharray:none;stroke-opacity:1"
           d="m 154.86185,182.63211 c -8.55085,0.41049 -18.95876,9.25573 -14.24775,12.59225"
           id="path895"
           sodipodi:nodetypes="cc"
           inkscape:transform-center-x="0.50460683"
           inkscape:transform-center-y="-0.2652794" />
        <path
           style="fill:none;stroke:#ffffff;stroke-width:1.30506;stroke-linecap:butt;stroke-linejoin:miter;stroke-miterlimit:4;stroke-dasharray:none;stroke-opacity:1"
           d="m 156.94309,182.15484 -16.49268,17.59569"
           id="path897" />
        <circle
           id="path899"
           style="fill:none;stroke:#ffffff;stroke-width:1.30506;stroke-miterlimit:4;stroke-dasharray:none"
           cx="156.05019"
           cy="182.04979"
           r="0.0052471934" />
        <path
           style="fill:none;stroke:#ffffff;stroke-width:1.30506;stroke-linecap:butt;stroke-linejoin:miter;stroke-miterlimit:4;stroke-dasharray:none;stroke-opacity:1"
           d="m 156.22636,181.36833 c -21.64602,14.53315 -15.84897,18.39031 -15.77595,18.3822"
           id="path901"
           sodipodi:nodetypes="cc" />
        <path
           style="fill:none;stroke:#ffffff;stroke-width:1.30506;stroke-linecap:butt;stroke-linejoin:miter;stroke-miterlimit:4;stroke-dasharray:none;stroke-opacity:1"
           d="m 154.78959,184.25582 c -0.51516,-1.78793 -16.47611,12.10976 -13.65636,14.44423"
           id="path905"
           sodipodi:nodetypes="cc" />
        <path
           style="fill:none;stroke:#ffffff;stroke-width:1.30506;stroke-linecap:butt;stroke-linejoin:miter;stroke-miterlimit:4;stroke-dasharray:none;stroke-opacity:1"
           d="m 158.6859,184.01006 -0.79736,-0.80473 c -7.97537,8.25393 -18.01567,21.11964 -17.43813,16.5452"
           id="path907"
           sodipodi:nodetypes="ccc" />
        <path
           style="fill:none;stroke:#ffffff;stroke-width:1.30506;stroke-linecap:butt;stroke-linejoin:miter;stroke-miterlimit:4;stroke-dasharray:none;stroke-opacity:1"
           d="m 174.22364,164.71671 c 0.6286,0.21778 0.96421,0.55276 0.89292,1.0505"
           id="path909"
           sodipodi:nodetypes="cc" />
        <path
           style="fill:none;stroke:#ffffff;stroke-width:1.30506;stroke-linecap:butt;stroke-linejoin:miter;stroke-miterlimit:4;stroke-dasharray:none;stroke-opacity:1"
           d="m 177.58521,160.46223 c 0.67194,0.17384 1.32391,0.46888 1.20806,1.41816"
           id="path911"
           sodipodi:nodetypes="cc" />
        <path
           style="fill:none;stroke:#ffffff;stroke-width:1.30506;stroke-linecap:butt;stroke-linejoin:miter;stroke-miterlimit:4;stroke-dasharray:none;stroke-opacity:1"
           d="m 180.94677,156.26028 c 1.02339,0.22199 1.99981,0.5614 2.19861,2.84484"
           id="path913"
           sodipodi:nodetypes="cc" />
        <path
           style="fill:none;stroke:#ffffff;stroke-width:1.30506;stroke-linecap:butt;stroke-linejoin:miter;stroke-miterlimit:4;stroke-dasharray:none;stroke-opacity:1"
           d="m 156.57542,184.67601 c -4.11217,8.55605 -11.75245,19.1534 -14.65432,15.65229"
           id="path915"
           sodipodi:nodetypes="cc" />
        <path
           style="fill:none;stroke:#ffffff;stroke-width:1.30506;stroke-linecap:butt;stroke-linejoin:miter;stroke-miterlimit:4;stroke-dasharray:none;stroke-opacity:1"
           d="m 157.52087,185.20126 c -9.37749,17.89494 -14.27048,19.25345 -16.59773,15.54724"
           id="path917"
           sodipodi:nodetypes="cc" />
        <path
           style="fill:none;stroke:#ffffff;stroke-width:1.30506;stroke-linecap:butt;stroke-linejoin:miter;stroke-miterlimit:4;stroke-dasharray:none;stroke-opacity:1"
           d="m 158.6859,184.01006 c 0.68846,4.11065 -5.01491,25.68815 -14.55877,18.52427"
           id="path919"
           sodipodi:nodetypes="cc" />
        <path
           style="fill:none;stroke:#ffffff;stroke-width:1.30506;stroke-linecap:butt;stroke-linejoin:miter;stroke-miterlimit:4;stroke-dasharray:none;stroke-opacity:1"
           d="m 157.52087,185.20126 c 0.78183,4.83519 -4.48245,18.97279 -11.39782,16.38763"
           id="path921"
           sodipodi:nodetypes="cc" />
      </g>
      <g
         id="g961"
         transform="matrix(1.3748518,1.0094609,-1.2337998,1.4776645,340.47124,-336.59501)"
         style="fill:none;stroke:#ffffff;stroke-width:1.10481;stroke-miterlimit:4;stroke-dasharray:none"
         inkscape:export-xdpi="300"
         inkscape:export-ydpi="300">
        <path
           style="fill:none;stroke:#ffffff;stroke-width:1.10481;stroke-linecap:butt;stroke-linejoin:miter;stroke-miterlimit:4;stroke-dasharray:none;stroke-opacity:1"
           d="m 22.433365,245.00369 c -0.761714,4.23419 6.800914,1.91879 9.89419,4.21238 0.488988,-1.72052 0.961413,-4.80545 3.722569,-4.50626 l 30.564235,9.99215 c 2.169005,0.61945 1.724783,1.81439 0.391849,5.48589 2.097664,-0.8079 9.685411,5.88924 10.579927,1.07758 0.57886,-4.03426 -9.808799,-2.50532 -9.502342,-4.80015 -0.638551,3.21807 -1.493287,6.39259 -3.722567,5.192 L 33.40514,252.44883 c -3.0439,-0.12823 -0.07188,-4.24802 -0.09796,-6.46551 -2.730739,0.35785 -9.351918,-4.34358 -10.873813,-0.97963 z"
           id="path923"
           sodipodi:nodetypes="cccccccccccc" />
        <path
           style="fill:none;stroke:#ffffff;stroke-width:1.10481;stroke-linecap:butt;stroke-linejoin:miter;stroke-miterlimit:4;stroke-dasharray:none;stroke-opacity:1"
           d="m 22.433367,245.00369 c 0.504703,1.99156 2.870089,2.3085 5.975697,1.95925"
           id="path925"
           sodipodi:nodetypes="cc" />
        <path
           style="fill:none;stroke:#ffffff;stroke-width:1.10481;stroke-linecap:butt;stroke-linejoin:miter;stroke-miterlimit:4;stroke-dasharray:none;stroke-opacity:1"
           d="m 64.557149,259.69804 c -7.382816,-1.72729 -19.200609,-5.35527 -28.800914,-8.03291 -1.910347,-1.15931 -0.893337,-3.50566 -0.489809,-4.4083"
           id="path929"
           sodipodi:nodetypes="ccc" />
        <path
           style="fill:none;stroke:#ffffff;stroke-width:1.10481;stroke-linecap:butt;stroke-linejoin:miter;stroke-miterlimit:4;stroke-dasharray:none;stroke-opacity:1"
           d="m 64.361226,255.28973 c 1.972437,-0.11894 2.200247,0.8089 1.567397,2.25314"
           id="path931"
           sodipodi:nodetypes="cc" />
        <path
           style="fill:none;stroke:#ffffff;stroke-width:1.10481;stroke-linecap:butt;stroke-linejoin:miter;stroke-miterlimit:4;stroke-dasharray:none;stroke-opacity:1"
           d="m 77.096323,262.14709 c -2.755906,0.73783 -6.103014,-1.44696 -8.130868,-2.74294"
           id="path933"
           sodipodi:nodetypes="cc" />
      </g>
      <text
         xml:space="preserve"
         style="font-style:normal;font-variant:normal;font-weight:normal;font-stretch:normal;font-size:10.58329999999999949px;line-height:1.25;font-family:'Bangla MN';-inkscape-font-specification:'Bangla MN';white-space:pre;inline-size:59.178;fill:none;fill-opacity:1;stroke:#ffffff;stroke-width:0.884657;stroke-miterlimit:4;stroke-dasharray:none"
         x="66.36824"
         y="252.19931"
         id="text969"
         transform="matrix(2.2057009,0,0,2.3172003,-47.669607,-424.60347)"
         inkscape:export-xdpi="300"
         inkscape:export-ydpi="300"><tspan
           x="66.36824"
           y="252.19931"><tspan
             style="font-style:normal;font-variant:normal;font-weight:normal;font-stretch:normal;font-family:'Bangla MN';-inkscape-font-specification:'Bangla MN';fill:none;stroke:#ffffff;stroke-width:0.884657;stroke-miterlimit:4;stroke-dasharray:none">cookzera</tspan></tspan></text>
      <path
         id="rect1011"
         style="fill:none;fill-rule:evenodd;stroke:#ffffff;stroke-width:2;stroke-miterlimit:4;stroke-dasharray:none"
         d="M 150.16327,0.7907 A 146.65286,102.68433 0 0 0 67.212806,18.986663 H 14.263612 v 46.58585 A 146.65286,102.68433 0 0 0 3.9049048,103.47497 146.65286,102.68433 0 0 0 14.263612,141.37741 v 46.58585 h 52.947441 a 146.65286,102.68433 0 0 0 83.347367,18.19598 146.65286,102.68433 0 0 0 83.34563,-18.19598 h 52.94921 V 141.37941 A 146.65286,102.68433 0 0 0 297.21199,103.47497 146.65286,102.68433 0 0 0 286.85326,65.56852 V 18.986663 H 233.90583 A 146.65286,102.68433 0 0 0 150.55842,0.7907 a 146.65286,102.68433 0 0 0 -0.39515,0 z"
         inkscape:export-xdpi="300"
         inkscape:export-ydpi="300" />
      <path
         id="rect1011-6"
         style="fill:none;fill-rule:evenodd;stroke:#ffffff;stroke-width:2.00000006;stroke-miterlimit:4;stroke-dasharray:2.00000006, 2.00000006000000008;stroke-dashoffset:0"
         d="M 150.20924,17.502933 A 129.58522,85.972102 0 0 0 76.91266,32.737427 H 30.125723 v 39.00384 a 129.58522,85.972102 0 0 0 -9.153115,31.733643 129.58522,85.972102 0 0 0 9.153115,31.73372 v 39.0039 H 76.91113 a 129.58522,85.972102 0 0 0 73.64732,15.23451 129.58522,85.972102 0 0 0 73.64574,-15.23451 h 46.78687 v -39.00216 a 129.58522,85.972102 0 0 0 9.15321,-31.73546 129.58522,85.972102 0 0 0 -9.15321,-31.73701 V 32.737427 h -46.78537 a 129.58522,85.972102 0 0 0 -73.64724,-15.234494 129.58522,85.972102 0 0 0 -0.34935,0 z"
         inkscape:export-xdpi="300"
         inkscape:export-ydpi="300" />
      <ellipse
         style="opacity:0.99;fill:none;stroke:#ffffff;stroke-width:2;stroke-miterlimit:4;stroke-dasharray:none;stroke-dashoffset:0"
         id="path1047"
         cx="256.81024"
         cy="103.47498"
         rx="4.6043305"
         ry="5.2380013"
         inkscape:export-xdpi="300"
         inkscape:export-ydpi="300" />
      <ellipse
         style="opacity:0.99;fill:none;stroke:#ffffff;stroke-width:2;stroke-miterlimit:4;stroke-dasharray:none;stroke-dashoffset:0"
         id="path1047-2"
         cx="42.453083"
         cy="103.47498"
         rx="4.6043305"
         ry="5.2380013"
         inkscape:export-xdpi="300"
         inkscape:export-ydpi="300" />
      <path
         style="fill:none;stroke:#ffffff;stroke-width:2;stroke-linecap:butt;stroke-linejoin:miter;stroke-miterlimit:4;stroke-dasharray:none;stroke-opacity:1"
         d="m 137.10557,118.11413 c 0,0 23.35324,10.03929 34.24778,0.55578 -3.02554,-9.87169 -3.12779,-18.842013 -1.35193,-27.233227 l -6.30875,-3.890512 c 12.105,6.379567 20.11008,4.090637 22.53141,-10.00405 0.94375,-20.487833 -6.37393,-19.748109 -13.51886,-19.452321 l 0.90129,9.448261 C 172.07772,35.723967 143.2588,40.564867 138.90806,58.0898 c 3.40769,2.651755 7.73822,4.165382 8.56195,10.00402 -5.41726,-15.506691 -23.17787,-12.326364 -27.93899,5.00203 -0.59243,9.827058 6.98477,20.632514 19.20011,17.46491 l -1.62556,-7.46083 c 4.08574,-1.815306 8.0905,-3.980324 13.51886,0 -4.35608,-3.263644 -8.71216,-1.75847 -13.06825,0 2.13652,9.263044 2.67521,18.52607 1.35188,27.78908 4.79599,3.95669 10.30489,3.51685 15.77203,3.33463 -4.84543,0.0438 -9.38494,0.71666 -16.22262,-3.33463 z"
         id="path865-8"
         sodipodi:nodetypes="cccccccccccccccccc"
         inkscape:export-xdpi="300"
         inkscape:export-ydpi="300" />
    </g>
  </g>
</svg>
